<svg width="314" height="100" viewBox="0 0 314 100" fill="none" xmlns="http://www.w3.org/2000/svg">
<circle cx="50" cy="50" r="49" stroke="#FF0000" stroke-width="2"/>
<path d="M45.4761 75V59.3602L61.9046 31.6351L57.3808 41.8246L66.9046 59.3602V33.5308H74.9999V75H67.3808L53.5713 49.4076V75H45.4761Z" fill="#FF0000" stroke="#FF0000" stroke-width="0.5" stroke-linecap="round" stroke-linejoin="round"/>
<path d="M25 65.9953V25H33.3333V41.5877H45.4762V25H53.8095V42.7725L40.7143 64.8104L45.4762 53.673V48.9337H33.3333V65.9953H25Z" fill="#FF0000" stroke="#FF0000" stroke-width="0.5" stroke-linecap="round" stroke-linejoin="round"/>
<path d="M145.5 31.25L144.8 53L145.4 66H138.4L139 53.85L138.9 51.2H125.45L125.4 53L126 66H119L119.6 53.85L119 32.5L126.1 31.25L125.6 45.9H138.75L138.4 32.5L145.5 31.25ZM164.071 66.55C161.071 66.55 158.538 65.6333 156.471 63.8C154.438 61.9667 153.421 59.7 153.421 57L152.921 32.5L160.121 31.25L159.321 53.15C159.321 55.4833 159.855 57.3 160.921 58.6C162.021 59.9 163.705 60.55 165.971 60.55C168.238 60.55 169.871 59.9167 170.871 58.65C171.871 57.3833 172.371 55.2 172.371 52.1L171.771 32.5L178.771 31.25L178.221 53.25C178.221 57.1833 176.905 60.3833 174.271 62.85C171.638 65.3167 168.238 66.55 164.071 66.55ZM212.54 31.4L211.89 53L212.44 64.9L206.54 66.15L191.64 42.05V53L192.34 66H186.09L186.69 53.85L186.09 31.65L192.09 31.35L206.94 55.8L206.44 32.15L212.54 31.4ZM240.763 66.25L238.313 56.5H226.363L223.713 66L217.313 65.5L221.713 53.35L228.413 31.85L237.363 31.2L243.813 52.6L247.963 65.15L240.763 66.25ZM232.863 37.7H232.213L227.913 51.2H236.813L232.863 37.7ZM264.741 66.55C260.375 66.55 256.858 65.0833 254.191 62.15C251.525 59.2167 250.191 55.3333 250.191 50.5C250.191 45 251.858 40.3667 255.191 36.6C258.525 32.8333 262.625 30.95 267.491 30.95C269.425 30.95 271.208 31.1333 272.841 31.5C274.508 31.8333 275.691 32.1833 276.391 32.55L277.391 33.1L274.491 40.05C273.491 39.3833 272.141 38.7667 270.441 38.2C268.741 37.6 267.241 37.3 265.941 37.3C263.241 37.3 261.075 38.25 259.441 40.15C257.808 42.05 256.991 44.5667 256.991 47.7C256.991 51.9333 257.758 55.2333 259.291 57.6C260.858 59.9667 263.025 61.15 265.791 61.15C267.591 61.15 269.291 60.9 270.891 60.4V52.65H264.441L264.941 47.6H276.941L276.491 55.75L276.841 64.4C271.941 65.8333 267.908 66.55 264.741 66.55ZM298.479 31C302.412 31 305.645 32.5 308.179 35.5C310.745 38.5 312.029 42.3167 312.029 46.95C312.029 52.8167 310.512 57.55 307.479 61.15C304.445 64.75 300.462 66.55 295.529 66.55C291.695 66.55 288.479 65.0167 285.879 61.95C283.279 58.85 281.979 55.0333 281.979 50.5C281.979 44.8333 283.529 40.1667 286.629 36.5C289.729 32.8333 293.679 31 298.479 31ZM305.229 49.75C305.229 41.3167 302.462 37.1 296.929 37.1C294.395 37.1 292.395 38.05 290.929 39.95C289.495 41.8167 288.779 44.6333 288.779 48.4C288.779 52.1333 289.545 55.2167 291.079 57.65C292.645 60.05 294.695 61.25 297.229 61.25C299.795 61.25 301.762 60.2333 303.129 58.2C304.529 56.1333 305.229 53.3167 305.229 49.75Z" fill="white"/>
</svg>
